<svg xmlns="http://www.w3.org/2000/svg" xmlns:xlink="http://www.w3.org/1999/xlink" version="1.1" id="Layer_1" x="0px" y="0px" width="100px" height="100px" viewBox="0 0 100 100" enable-background="new 0 0 100 100" xml:space="preserve">
<g id="XMLID_1_">
	<g>
		<g id="XMLID_2_">
			<g>
				<path fill="#000000" d="M80.379,52.938l4.901-6.176l4.373,5.544L99,64.119h-9.347v6.766c0,5.617-4.58,10.197-10.196,10.197      H13.863c-5.616,0-10.196-4.58-10.196-10.197V28.577c0-5.617,4.58-10.197,10.196-10.197h65.594      c5.616,0,10.196,4.58,10.196,10.197v5.502h-9.274v-5.502c0-0.508-0.404-0.933-0.922-0.933H13.863      c-0.498,0-0.933,0.425-0.933,0.933v42.309c0,0.519,0.435,0.923,0.933,0.923h65.594c0.518,0,0.922-0.404,0.922-0.923v-6.766      H71.54L80.379,52.938z"/>
			</g>
		</g>
	</g>
</g>
<polygon points="57.156,46.979 70.755,66.537 43.566,66.537 43.623,66.468 14.747,66.468 37.774,35.319 51.951,54.482 "/>
<path d="M64.972,34.795c2.798,0,5.055,2.268,5.055,5.055c0,2.789-2.257,5.056-5.055,5.056c-2.798,0-5.055-2.267-5.055-5.056  C59.917,37.063,62.174,34.795,64.972,34.795z"/>
</svg>