<svg xmlns="http://www.w3.org/2000/svg" xmlns:xlink="http://www.w3.org/1999/xlink" version="1.1" x="0px" y="0px" width="100px" height="100px" viewBox="0 0 100 100" enable-background="new 0 0 100 100" xml:space="preserve">
<g id="Captions">
</g>
<g id="Your_Icon">
	<g>
		<path d="M87.181,60.173c-0.774,0-1.408,0.634-1.408,1.408V86.37c0,0.774-0.634,1.408-1.408,1.408H14.791    c-0.774,0-1.408-0.634-1.408-1.408V61.581c0-0.774-0.634-1.408-1.408-1.408H1.408C0.634,60.173,0,60.807,0,61.581v37.011    C0,99.366,0.634,100,1.408,100h97.184c0.774,0,1.408-0.634,1.408-1.408V61.581c0-0.774-0.634-1.408-1.408-1.408H87.181z"/>
	</g>
	<g>
		<path d="M86.688,14.717C75.05,0.419,53.062-2.165,38.361,9.8c-8.129,6.617-12.563,25.372-12.563,25.372    c-0.18,0.761-0.968,1.384-1.75,1.384H10.502c-0.782,0-1.076,0.538-0.651,1.195l21.109,32.71c0.425,0.657,1.118,0.657,1.543,0    l21.108-32.71c0.425-0.657,0.131-1.195-0.651-1.195H37.575c-0.782,0-1.253-0.617-1.045-1.372c0,0,3.362-12.194,8.899-16.702    c10.627-8.65,23.957-6.87,32.373,3.468c5.693,6.995,7.095,15.397,4.114,22.779c-0.622,1.539-1.684,3.249-1.684,3.249    c-0.412,0.665-0.109,1.208,0.673,1.208h9.466c0.782,0,1.639-0.603,1.901-1.339c0,0,0.573-1.604,0.945-3.118    C95.737,34.487,93.616,23.228,86.688,14.717z"/>
	</g>
</g>
</svg>